<mxfile host="app.diagrams.net" agent="Mozilla/5.0 (Windows NT 10.0; Win64; x64) AppleWebKit/537.36 (KHTML, like Gecko) Chrome/135.0.0.0 Safari/537.36" version="26.2.14">
  <diagram name="페이지-1" id="e0qO_6yzU2z-qVPy5MMS">
    <mxGraphModel dx="3955" dy="1668" grid="0" gridSize="10" guides="1" tooltips="1" connect="1" arrows="1" fold="1" page="1" pageScale="1" pageWidth="827" pageHeight="1169" math="0" shadow="0">
      <root>
        <mxCell id="0" />
        <mxCell id="1" parent="0" />
        <mxCell id="_WF-KSc7WnLLSaeyke-u-2" value="소켓 생성" style="whiteSpace=wrap;strokeWidth=2;fontSize=35;" vertex="1" parent="1">
          <mxGeometry x="135.5" y="127" width="185" height="54" as="geometry" />
        </mxCell>
        <mxCell id="_WF-KSc7WnLLSaeyke-u-3" value="서버 주소 설정" style="whiteSpace=wrap;strokeWidth=2;fontSize=35;" vertex="1" parent="1">
          <mxGeometry x="91" y="231" width="274" height="54" as="geometry" />
        </mxCell>
        <mxCell id="_WF-KSc7WnLLSaeyke-u-4" value="connect로 서버 연결 시도" style="whiteSpace=wrap;strokeWidth=2;fontSize=35;" vertex="1" parent="1">
          <mxGeometry x="102" y="320" width="252" height="78" as="geometry" />
        </mxCell>
        <mxCell id="_WF-KSc7WnLLSaeyke-u-12" value="소켓 닫기" style="whiteSpace=wrap;strokeWidth=2;fontSize=35;" vertex="1" parent="1">
          <mxGeometry x="259.25" y="1264" width="195.5" height="54" as="geometry" />
        </mxCell>
        <mxCell id="_WF-KSc7WnLLSaeyke-u-14" value="" style="curved=1;startArrow=none;endArrow=block;exitX=0.5;exitY=1;entryX=0.5;entryY=0;rounded=0;fontSize=35;" edge="1" parent="1" target="_WF-KSc7WnLLSaeyke-u-2">
          <mxGeometry relative="1" as="geometry">
            <Array as="points" />
            <mxPoint x="228" y="74" as="sourcePoint" />
          </mxGeometry>
        </mxCell>
        <mxCell id="_WF-KSc7WnLLSaeyke-u-15" value="" style="curved=1;startArrow=none;endArrow=block;exitX=0.5;exitY=1;entryX=0.5;entryY=0;rounded=0;fontSize=35;" edge="1" parent="1" source="_WF-KSc7WnLLSaeyke-u-2" target="_WF-KSc7WnLLSaeyke-u-3">
          <mxGeometry relative="1" as="geometry">
            <Array as="points" />
          </mxGeometry>
        </mxCell>
        <mxCell id="_WF-KSc7WnLLSaeyke-u-16" value="" style="curved=1;startArrow=none;endArrow=block;exitX=0.5;exitY=1;entryX=0.5;entryY=0;rounded=0;fontSize=35;" edge="1" parent="1" source="_WF-KSc7WnLLSaeyke-u-3" target="_WF-KSc7WnLLSaeyke-u-4">
          <mxGeometry relative="1" as="geometry">
            <Array as="points" />
          </mxGeometry>
        </mxCell>
        <mxCell id="_WF-KSc7WnLLSaeyke-u-17" value="" style="curved=1;startArrow=none;endArrow=block;exitX=0.5;exitY=1;entryX=0.5;entryY=0;rounded=0;fontSize=35;" edge="1" parent="1" source="_WF-KSc7WnLLSaeyke-u-4">
          <mxGeometry relative="1" as="geometry">
            <Array as="points" />
            <mxPoint x="228" y="436" as="targetPoint" />
          </mxGeometry>
        </mxCell>
        <mxCell id="_WF-KSc7WnLLSaeyke-u-25" value="" style="curved=1;startArrow=none;endArrow=block;exitX=0.5;exitY=1;entryX=0.5;entryY=0;rounded=0;fontSize=35;" edge="1" parent="1" source="_WF-KSc7WnLLSaeyke-u-12">
          <mxGeometry relative="1" as="geometry">
            <Array as="points" />
            <mxPoint x="359.50000000000045" y="1359" as="targetPoint" />
          </mxGeometry>
        </mxCell>
        <mxCell id="_WF-KSc7WnLLSaeyke-u-27" value="while(1)" style="swimlane;whiteSpace=wrap;html=1;fontSize=35;" vertex="1" parent="1">
          <mxGeometry x="-12" y="436" width="494" height="762" as="geometry" />
        </mxCell>
        <mxCell id="_WF-KSc7WnLLSaeyke-u-6" value="URL 입력 받기" style="whiteSpace=wrap;strokeWidth=2;fontSize=35;" vertex="1" parent="_WF-KSc7WnLLSaeyke-u-27">
          <mxGeometry x="167.5" y="46" width="156" height="92" as="geometry" />
        </mxCell>
        <mxCell id="_WF-KSc7WnLLSaeyke-u-7" value="서버로 URL 전송" style="whiteSpace=wrap;strokeWidth=2;fontSize=35;" vertex="1" parent="_WF-KSc7WnLLSaeyke-u-27">
          <mxGeometry x="160.5" y="167" width="170" height="84" as="geometry" />
        </mxCell>
        <mxCell id="_WF-KSc7WnLLSaeyke-u-8" value="입력이 bye?" style="rhombus;strokeWidth=2;whiteSpace=wrap;fontSize=35;" vertex="1" parent="_WF-KSc7WnLLSaeyke-u-27">
          <mxGeometry x="176" y="281" width="134" height="134" as="geometry" />
        </mxCell>
        <mxCell id="_WF-KSc7WnLLSaeyke-u-18" value="" style="curved=1;startArrow=none;endArrow=block;exitX=0.5;exitY=1;entryX=0.5;entryY=-0.01;rounded=0;fontSize=35;" edge="1" parent="_WF-KSc7WnLLSaeyke-u-27" target="_WF-KSc7WnLLSaeyke-u-6">
          <mxGeometry relative="1" as="geometry">
            <Array as="points" />
            <mxPoint x="244" y="23" as="sourcePoint" />
          </mxGeometry>
        </mxCell>
        <mxCell id="_WF-KSc7WnLLSaeyke-u-19" value="" style="curved=1;startArrow=none;endArrow=block;exitX=0.5;exitY=0.99;entryX=0.5;entryY=-0.01;rounded=0;fontSize=35;" edge="1" parent="_WF-KSc7WnLLSaeyke-u-27" source="_WF-KSc7WnLLSaeyke-u-6" target="_WF-KSc7WnLLSaeyke-u-7">
          <mxGeometry relative="1" as="geometry">
            <Array as="points" />
          </mxGeometry>
        </mxCell>
        <mxCell id="_WF-KSc7WnLLSaeyke-u-20" value="" style="curved=1;startArrow=none;endArrow=block;exitX=0.5;exitY=0.99;entryX=0.5;entryY=0;rounded=0;fontSize=35;" edge="1" parent="_WF-KSc7WnLLSaeyke-u-27" source="_WF-KSc7WnLLSaeyke-u-7" target="_WF-KSc7WnLLSaeyke-u-8">
          <mxGeometry relative="1" as="geometry">
            <Array as="points" />
          </mxGeometry>
        </mxCell>
        <mxCell id="_WF-KSc7WnLLSaeyke-u-21" value="yes" style="curved=1;startArrow=none;endArrow=block;exitX=1.01;exitY=0.99;entryX=0.5;entryY=0;rounded=0;fontSize=35;" edge="1" parent="_WF-KSc7WnLLSaeyke-u-27" source="_WF-KSc7WnLLSaeyke-u-8" target="_WF-KSc7WnLLSaeyke-u-9">
          <mxGeometry relative="1" as="geometry">
            <Array as="points">
              <mxPoint x="350" y="452" />
            </Array>
          </mxGeometry>
        </mxCell>
        <mxCell id="_WF-KSc7WnLLSaeyke-u-22" value="no" style="curved=1;startArrow=none;endArrow=block;exitX=0;exitY=0.99;entryX=0.5;entryY=0;rounded=0;fontSize=35;" edge="1" parent="_WF-KSc7WnLLSaeyke-u-27" source="_WF-KSc7WnLLSaeyke-u-8">
          <mxGeometry relative="1" as="geometry">
            <Array as="points">
              <mxPoint x="137" y="452" />
            </Array>
            <mxPoint x="137" y="488" as="targetPoint" />
          </mxGeometry>
        </mxCell>
        <mxCell id="_WF-KSc7WnLLSaeyke-u-23" value="" style="curved=1;startArrow=none;endArrow=block;exitX=0.5;exitY=1;entryX=0.5;entryY=0;rounded=0;fontSize=35;entryDx=0;entryDy=0;" edge="1" parent="_WF-KSc7WnLLSaeyke-u-27" target="_WF-KSc7WnLLSaeyke-u-11">
          <mxGeometry relative="1" as="geometry">
            <Array as="points" />
            <mxPoint x="137" y="542" as="sourcePoint" />
            <mxPoint x="137" y="592" as="targetPoint" />
          </mxGeometry>
        </mxCell>
        <mxCell id="_WF-KSc7WnLLSaeyke-u-24" value="" style="curved=1;startArrow=none;endArrow=block;exitX=0.5;exitY=1;rounded=0;fontSize=35;" edge="1" parent="_WF-KSc7WnLLSaeyke-u-27" source="_WF-KSc7WnLLSaeyke-u-9">
          <mxGeometry relative="1" as="geometry">
            <Array as="points" />
            <mxPoint x="368" y="826" as="targetPoint" />
          </mxGeometry>
        </mxCell>
        <mxCell id="_WF-KSc7WnLLSaeyke-u-9" value="반복 종료" style="whiteSpace=wrap;strokeWidth=2;fontSize=35;" vertex="1" parent="_WF-KSc7WnLLSaeyke-u-27">
          <mxGeometry x="272" y="621" width="192" height="89" as="geometry" />
        </mxCell>
        <mxCell id="_WF-KSc7WnLLSaeyke-u-32" value="" style="edgeStyle=orthogonalEdgeStyle;rounded=0;orthogonalLoop=1;jettySize=auto;html=1;" edge="1" parent="_WF-KSc7WnLLSaeyke-u-27" source="_WF-KSc7WnLLSaeyke-u-10" target="_WF-KSc7WnLLSaeyke-u-11">
          <mxGeometry relative="1" as="geometry" />
        </mxCell>
        <mxCell id="_WF-KSc7WnLLSaeyke-u-10" value="서버로부터 응답 받기" style="whiteSpace=wrap;strokeWidth=2;fontSize=35;" vertex="1" parent="_WF-KSc7WnLLSaeyke-u-27">
          <mxGeometry x="32" y="488" width="202" height="84" as="geometry" />
        </mxCell>
        <mxCell id="_WF-KSc7WnLLSaeyke-u-11" value="HIT 또는 MISS 출력" style="whiteSpace=wrap;strokeWidth=2;fontSize=35;" vertex="1" parent="_WF-KSc7WnLLSaeyke-u-27">
          <mxGeometry x="39" y="621" width="188" height="112" as="geometry" />
        </mxCell>
        <mxCell id="_WF-KSc7WnLLSaeyke-u-30" value="종료" style="ellipse;whiteSpace=wrap;html=1;aspect=fixed;fontSize=35;" vertex="1" parent="1">
          <mxGeometry x="317" y="1361" width="80" height="80" as="geometry" />
        </mxCell>
        <mxCell id="_WF-KSc7WnLLSaeyke-u-31" value="시작" style="ellipse;whiteSpace=wrap;html=1;aspect=fixed;fontSize=35;" vertex="1" parent="1">
          <mxGeometry x="188" width="80" height="80" as="geometry" />
        </mxCell>
      </root>
    </mxGraphModel>
  </diagram>
</mxfile>
